Patient4_TMGait_0pt4_03_right_23_EMG.mot
version=1
nRows=26
nColumns=33
inDegrees=no
endheader
time	1LAddLong	2LGlutMax	3LGlutMed	4LIliopsoas	5LSemiMemb	6LBicFemLong	7LRecFem	8LVastMed	9LVastLat	10LGasMed	11LTibAnt	12lTibPost	13LPeroneusLong	14LSol	15LExtDigLong	16LFlexDigLong	17RAddLong	18RGlutMax	19RGlutMed	20RIliopsoas	21RSemiMemb	22RBicFemLong	23RRecFem	24RVastMed	25RVastLat	26RGasMed	27RTibAnt	28RTibPost	29RPeroneusLong	30RSol	31RExtDigLong	32RFlexDigLong
30.895	-0.00351	-0.090179	0.045776	0.028687	-0.005798	0.001984	0.098724	-0.003052	0.025635	0.03006	-0.13702	0.004272	0.016937	-0.1207	-0.051727	-0.15686	-0.001373	-0.065918	0.26535	-0.064545	0.070343	-0.036774	0.16663	-0.041962	0.008392	-0.009155	0.33463	-0.002747	-0.29923	0.015564	-0.017548	-0.03067
30.896	-0.000153	-0.10193	0.034332	0.023956	0.014343	-0.019836	0.029602	0.006866	0.024567	0.01236	-0.10315	0.006866	0.004883	-0.12451	0.1239	-0.054474	-0.014038	-0.10788	0.1387	-0.04837	-0.001526	-0.00946	0.13046	-0.055847	-0.014038	-0.003204	0.44998	-0.000916	-0.67703	-0.039215	-0.018005	-0.031128
30.897	0.011139	-0.077362	0.045471	0.018158	0.011749	0.005035	0.066528	-0.006561	0.038147	0.015564	-0.04364	0.000458	-0.024414	-0.057831	0.005951	0.10773	-0.009155	-0.11627	-0.44876	-0.048218	0.007324	-0.022888	0.091095	-0.07309	0.006714	-0.001831	0.26733	-0.00061	-0.52765	-0.086365	-0.010986	-0.039825
30.898	0.005341	-0.075836	-0.018158	0.019226	0.02594	0.006561	0.10925	0.000763	-0.001221	-0.005798	-0.024567	0.001984	-0.073547	0.036163	-0.033569	0.072327	0.002899	-0.041046	-0.095825	-0.03479	0.027466	-0.043793	0.10986	-0.11322	0.02121	-0.009308	0.2742	0.002136	0.38498	-0.071716	-0.015717	-0.0177
30.899	0.009918	-0.04837	0.021515	-0.022583	0.019073	0.015106	0.081482	0.010071	-0.041504	-0.045624	0.0383	0.010071	-0.056	0.052032	0.002594	0.08667	0.008392	-0.02655	0.21057	-0.011597	0.015564	-0.049744	0.077362	-0.067902	-0.003967	-0.010223	0.22064	-0.000916	0.51727	-0.052948	-0.016174	-0.016785
30.9	0.006714	-0.066223	0.12329	-0.054016	0.012512	0.003662	0.053558	0.00351	0.020447	-0.079956	0.015717	0.005646	-0.032349	0.019989	0.020599	0.053406	0.0177	-0.038757	0.072174	-0.024872	-0.050812	-0.061188	0.052643	-0.080719	0.005035	-0.000305	0.12817	-0.000153	0.44266	-0.121	-0.010681	-0.011597
30.901	0.003052	-0.013428	0.19318	-0.028992	0.005035	-0.011444	0.001526	-0.021667	0.04364	-0.10407	-0.032349	0.007477	0.028687	-0.026245	0.014954	-0.002899	0.015869	-0.013733	-0.19028	-0.085602	-0.082703	-0.068207	-0.013123	-0.076447	0.004425	0.013275	0.05722	-0.001831	-0.20645	-0.13947	-0.010529	0.001831
30.902	0.00351	-0.016479	0.20493	-0.0177	0.010223	-0.011139	0.022736	-0.03067	0.032654	-0.092316	-0.02594	0.006561	0.046997	-0.093384	-0.020447	-0.015717	0.015564	-0.013428	-0.41519	-0.033112	-0.079041	-0.040588	0.02655	-0.037079	0.002899	0.009613	-0.28595	-0.000458	0.074005	-0.12528	-0.009766	-0.003357
30.903	0.007782	-0.040131	0.24017	0.007935	0.013123	-0.002594	0.058136	-0.003815	0.002289	-0.011597	-0.046234	0.00473	0.008698	-0.082855	-0.021667	-0.00946	0.008087	0.031433	-0.40558	0.0177	0.084229	-0.031586	0.07309	0.050812	0.036926	0.001526	0.033112	0	0.045929	-0.13412	-0.010071	-0.001221
30.904	0.005951	-0.022278	0.18677	0.011749	0.007782	-0.004425	0.097046	-0.002441	-0.06073	0.044861	-0.0383	0.005646	0.032349	-0.07019	0.006409	-0.002747	-0.006409	0.001373	-0.327	0.030212	0.17502	-0.041504	0.033569	0.059967	0.036316	0.00061	-0.12726	0.000153	-0.019226	-0.093384	-0.006409	-0.002594
30.905	0.00351	-0.072021	0.10208	0.006561	0.014191	0.017395	0.10239	-0.005493	-0.075989	0.063782	-0.00946	0.007782	0.05188	-0.016632	0.079651	-0.007935	-0.00412	-0.057831	0.081024	0.06073	0.11276	-0.043182	-0.040588	-0.000763	0.022888	-0.00061	-0.15778	0.010681	0.04425	-0.036011	-0.008087	0.000153
30.906	0.010529	-0.053406	0.02121	0.019379	0.007172	0.005798	0.082092	0.002747	-0.03952	0.053711	0.035248	0.008698	0.038452	-0.001373	0.052643	-0.012054	0.014954	-0.062256	0.25955	0.096741	0.12909	-0.049896	-0.18097	-0.017548	0.002747	-0.001373	-0.4866	0.000458	0.17548	-0.052795	-0.008545	-0.002136
30.907	0.010529	-0.051575	-0.086212	0.007935	0.010071	0.009155	0.038605	0.007172	-0.011902	0.054932	0.14358	0.009918	0.016479	-0.052185	0.12192	-0.011749	0.006866	-0.060272	0.39047	0.12116	0.075684	-0.077057	-0.23987	-0.023956	-0.001221	-0.002136	-0.71304	-0.000458	0.20401	-0.028076	-0.011292	0.012512
30.908	0.007019	-0.050812	-0.032196	-0.002594	0.008545	0.014496	0.025635	0.004272	0.005188	0.075989	0.21866	0.008545	-0.059052	-0.090485	0.1001	-0.003357	0.008698	-0.072174	0.40009	0.057068	0.043793	-0.06012	-0.27176	-0.053253	0.010071	-0.001068	-0.21439	-0.000305	0.057068	0.018463	-0.008392	0.015564
30.909	0.005798	-0.14221	0.077362	-0.006714	-0.016785	-0.019379	0.059967	0.006256	-0.002441	0.06073	0.2507	0.009766	-0.14526	-0.091553	0.15076	-0.001678	0.002289	-0.10468	-0.41779	0.057983	0.048676	-0.050507	-0.21729	-0.058594	0.007782	-0.003662	0.26428	-0.001984	-0.33081	0.002136	-0.007782	0.020599
30.91	0.011292	-0.15701	-0.01297	0.017242	-0.031738	-0.037537	0.035706	0.007324	-0.016479	0.026855	0.22858	0.003815	-0.13412	0.010834	0.25009	-0.002136	-0.007324	-0.087128	-0.4834	0.02182	0.016785	-0.02655	-0.16953	-0.079803	-0.000458	0.003052	0.27023	-0.007019	-0.32303	-0.015869	-0.009308	0.019379
30.911	0.006714	-0.12238	-0.037079	0.012817	0.001221	-0.04837	0.02655	0.002747	-0.007324	-0.024719	0.026855	0.006714	-0.071564	0.12543	0.29129	0.012054	0.006104	-0.12451	1.0152	-0.070801	-0.018005	-0.025024	-0.13886	-0.10254	0.02594	0.005646	0.42465	-0.001526	-0.23239	0.007629	-0.010223	0.015259
30.912	0.009918	-0.074921	0.050201	0.007019	0.029297	-0.033264	0.014343	0.003815	0.001373	-0.092468	0.078888	0.00946	0.038757	0.20157	-0.1474	-0.49667	0.010071	-0.10956	1.4072	-0.072479	-0.010376	-0.05127	-0.2034	-0.032196	0.032196	-0.00351	0.1947	-0.003967	-0.16815	0.054474	-0.010681	0.029907
30.913	0.014954	-0.086823	0.17136	0.008087	0.030518	-0.00061	0.014038	0.004272	0.0177	-0.035706	-0.08316	-0.004425	0.086823	0.12604	0.14816	0.09903	0.005646	-0.081787	0.82703	-0.029755	-0.007629	-0.075378	-0.14313	-0.022278	0.047607	-0.002136	-0.099792	-0.00351	-0.15015	0.016632	-0.008087	0.027771
30.914	0.005646	-0.11002	0.089874	0.009766	0.02533	-0.033722	0.027618	0.002441	0.01297	0.034027	-0.20554	-0.007172	0.014954	0.070801	-0.17563	0.29282	0.002899	-0.085907	-0.23392	0.022583	0.020752	-0.088959	-0.043945	-0.005493	0.037842	-0.001831	-0.053253	-0.004578	-0.14847	0.038605	-0.007935	0.02243
30.915	0.016327	-0.10498	0.001984	0.006409	0.027618	-0.023956	0.04776	0.004425	0.006866	0.061188	-0.1828	0.006409	-0.020599	0.001831	0.083923	0.073853	0.006409	-0.1265	-0.31158	0.078278	0.00351	-0.074921	0.004425	0.008698	0.03006	-0.00061	-0.14099	-0.003357	-0.055695	0.11032	-0.008545	0.022125
30.916	0.007019	-0.079498	0.002136	0.015259	0.003204	-0.030365	0.072021	0.003204	-0.008545	0.11154	-0.21515	0.000458	-0.097351	-0.020599	-0.19119	-0.056915	0.011292	-0.031281	-0.16098	0.032654	0.030518	-0.038147	0.068665	-0.027618	0.013428	-0.007324	-0.215	-0.002747	0.041504	0.13077	-0.004425	0.026703
30.917	0.007019	-0.071106	0.03067	0.00351	0.017395	-0.016022	0.069427	0.001068	-0.030365	0.070496	-0.24933	0.008545	-0.089264	0.068207	-0.22522	0.081635	0.007477	-0.049286	-0.16174	-0.040894	0.053101	-0.070801	0.10193	-0.052948	0.005341	-0.001221	-0.10849	-0.002899	0.17578	0.09964	-0.005493	0.020752
30.918	0.014038	-0.03418	0.038147	0.008392	-0.006866	0.000916	0.05661	0.00885	-0.034943	-0.011597	-0.14404	0.00824	-0.05127	0.13123	-0.12634	0.15747	0.005188	-0.075378	-0.24704	-0.026855	0.036621	-0.049438	0.1535	-0.11749	0.014038	-0.006104	0.063477	-0.00412	0.034027	0.11627	-0.001984	0.018921
30.919	0.003815	-0.007629	0.029755	0.007172	0.001831	-0.015717	0.01297	0.013123	-0.021362	0.07782	-0.077362	0.003815	0.009613	0.17746	0.16678	-0.005035	0.000763	-0.056152	-0.31921	0.028229	0.030518	-0.054169	0.18982	-0.091095	0.007477	0.001831	0.2681	-0.002289	-0.064087	0.075989	-0.001068	0.014038
30.92	0.009003	-0.020447	-0.003204	0.001526	0.014191	-0.003662	-0.027618	0.010681	0.006409	0.1001	-0.085907	0.006256	0.12283	0.082703	-0.19577	-0.15762	0.002441	-0.04837	0.095367	0.040283	0.015411	-0.049133	0.13412	-0.095367	0.029907	-0.000458	0.3392	-0.002441	-0.047455	-0.028839	-0.002594	0.014954
